<svg width="41" height="41" viewBox="0 0 41 41" fill="none" xmlns="http://www.w3.org/2000/svg">
<path id="Vector" d="M14.1396 20.0273C14.1396 16.3456 17.1235 13.3601 20.8054 13.3601C24.4873 13.3601 27.4729 16.3456 27.4729 20.0273C27.4729 23.7091 24.4873 26.6945 20.8054 26.6945C17.1235 26.6945 14.1396 23.7091 14.1396 20.0273ZM10.5353 20.0273C10.5353 25.6993 15.1332 30.2971 20.8054 30.2971C26.4777 30.2971 31.0756 25.6993 31.0756 20.0273C31.0756 14.3553 26.4777 9.75758 20.8054 9.75758C15.1332 9.75758 10.5353 14.3553 10.5353 20.0273ZM29.0821 9.35038C29.0815 10.6759 30.1557 11.7508 31.4812 11.7513C32.8068 11.7519 33.8817 10.6778 33.8823 9.3523C33.8828 8.02682 32.8087 6.95187 31.4831 6.95134C30.1582 6.95196 29.0832 8.02553 29.0821 9.35038ZM12.7251 36.3069C10.7751 36.2181 9.71522 35.8933 9.01087 35.6189C8.07708 35.2553 7.41081 34.8224 6.7103 34.1229C6.0098 33.4233 5.57618 32.7577 5.21424 31.824C4.93967 31.12 4.61486 30.0598 4.52622 28.1099C4.42925 26.0017 4.40989 25.3685 4.40989 20.0275C4.40989 14.6865 4.43085 14.055 4.52622 11.9451C4.61502 9.99518 4.94223 8.9371 5.21424 8.23102C5.57778 7.29726 6.01076 6.63102 6.7103 5.93054C7.40985 5.23006 8.07548 4.79646 9.01087 4.43454C9.7149 4.15998 10.7751 3.83518 12.7251 3.74654C14.8333 3.64958 15.4667 3.63022 20.8054 3.63022C26.1442 3.63022 26.7781 3.65118 28.8882 3.74654C30.8381 3.83534 31.8963 4.16254 32.6024 4.43454C33.5362 4.79646 34.2024 5.23102 34.903 5.93054C35.6035 6.63006 36.0355 7.29726 36.399 8.23102C36.6736 8.93502 36.9984 9.99518 37.087 11.9451C37.184 14.055 37.2034 14.6865 37.2034 20.0275C37.2034 25.3685 37.184 26 37.087 28.1099C36.9982 30.0598 36.6718 31.1197 36.399 31.824C36.0355 32.7577 35.6025 33.424 34.903 34.1229C34.2034 34.8217 33.5362 35.2553 32.6024 35.6189C31.8984 35.8934 30.8381 36.2182 28.8882 36.3069C26.7799 36.4038 26.1466 36.4232 20.8054 36.4232C15.4643 36.4232 14.8327 36.4038 12.7251 36.3069ZM12.5595 0.148464C10.4303 0.245424 8.97535 0.583024 7.70474 1.07742C6.38885 1.58798 5.27489 2.27294 4.16172 3.3843C3.04856 4.49566 2.36533 5.61134 1.85475 6.92718C1.36033 8.19854 1.02272 9.65262 0.925751 11.7817C0.827187 13.9142 0.804626 14.596 0.804626 20.0273C0.804626 25.4587 0.827187 26.1405 0.925751 28.2729C1.02272 30.4022 1.36033 31.8561 1.85475 33.1275C2.36533 34.4425 3.04872 35.5595 4.16172 36.6704C5.27473 37.7813 6.38885 38.4653 7.70474 38.9773C8.97775 39.4717 10.4303 39.8093 12.5595 39.9062C14.6932 40.0032 15.3739 40.0273 20.8054 40.0273C26.237 40.0273 26.9188 40.0048 29.0514 39.9062C31.1807 39.8093 32.6347 39.4717 33.9061 38.9773C35.2212 38.4653 36.336 37.7817 37.4491 36.6704C38.5623 35.559 39.2441 34.4425 39.7561 33.1275C40.2505 31.8561 40.5897 30.4021 40.6851 28.2729C40.7821 26.1389 40.8046 25.4587 40.8046 20.0273C40.8046 14.596 40.7821 13.9142 40.6851 11.7817C40.5881 9.65246 40.2505 8.19774 39.7561 6.92718C39.2441 5.61214 38.5605 4.49742 37.4491 3.3843C36.3377 2.27118 35.2212 1.58798 33.9077 1.07742C32.6347 0.583024 31.1806 0.243824 29.053 0.148464C26.9204 0.0515037 26.2386 0.0273438 20.807 0.0273438C15.3754 0.0273438 14.6932 0.0499038 12.5595 0.148464Z" fill="url(#paint0_radial_853_472)"/>
<defs>
<radialGradient id="paint0_radial_853_472" cx="0" cy="0" r="1" gradientUnits="userSpaceOnUse" gradientTransform="translate(85.8359 643.051) scale(835.5)">
<stop offset="0.09" stop-color="#FA8F21"/>
<stop offset="0.78" stop-color="#D82D7E"/>
</radialGradient>
</defs>
</svg>
