<svg width="41" height="43" viewBox="0 0 41 43" fill="none" xmlns="http://www.w3.org/2000/svg">
<g id="&#240;&#159;&#166;&#134; icon &#34;linkedin original&#34;">
<path id="Vector" d="M38.0348 0.305826H3.76992C2.99247 0.297422 2.24364 0.616948 1.68773 1.19429C1.13182 1.77164 0.814246 2.55964 0.804688 3.38539V39.9273C0.815974 40.7518 1.13431 41.538 1.69003 42.1139C2.24575 42.6897 2.9936 43.0083 3.76992 42.9998H38.0348C38.8123 43.0064 39.5606 42.6858 40.1162 42.1081C40.6718 41.5304 40.9896 40.7426 41 39.9168V3.3749C40.9861 2.55156 40.6669 1.76732 40.1116 1.19262C39.5564 0.617928 38.81 0.299239 38.0348 0.305826Z" fill="#0076B2"/>
<g id="Group">
<path id="Vector_2" d="M6.7552 16.3087H12.7219V36.7004H6.7552V16.3087ZM9.7402 6.16016C10.4245 6.16016 11.0935 6.37575 11.6625 6.77966C12.2315 7.18357 12.6749 7.75766 12.9366 8.42929C13.1983 9.10091 13.2667 9.83991 13.1329 10.5528C12.9992 11.2657 12.6694 11.9204 12.1852 12.4341C11.7011 12.9479 11.0844 13.2976 10.4131 13.4389C9.74179 13.5803 9.04611 13.5071 8.41404 13.2284C7.78197 12.9498 7.24191 12.4783 6.86218 11.8735C6.48245 11.2688 6.28011 10.558 6.28076 9.83114C6.28164 8.85721 6.6465 7.92349 7.29517 7.23515C7.94385 6.54681 8.82327 6.16016 9.7402 6.16016Z" fill="white"/>
<path id="Vector_3" d="M16.4644 16.3079H22.184V19.1075H22.263C23.0603 17.5048 25.0042 15.8145 27.9068 15.8145C33.9493 15.8005 35.0695 20.0244 35.0695 25.5011V36.6996H29.1028V26.7785C29.1028 24.4163 29.0633 21.3752 26.0025 21.3752C22.9417 21.3752 22.4212 23.9508 22.4212 26.6245V36.6996H16.4644V16.3079Z" fill="white"/>
</g>
</g>
</svg>
