<?xml version="1.0" encoding="UTF-8"?>
<svg version="1.1" viewBox="0 0 900 900" width="1280" height="1280" xmlns="http://www.w3.org/2000/svg">
<path transform="translate(0)" d="m0 0h900v900h-900z"/>
<path transform="translate(239,344)" d="m0 0 3 1 1 2 1 37 6 15 5 17 1 13v22l-1 2 8-2-1-2-1-23-3-8-2-2v-3l5 1 5 8 1 4v24l-3 5-8 2-6 26-6 16-8 15-9 13h-2l-2 4-10 9-13 9-15 7-16 4-7 1h-17l-17-3-15-6-11-6-11-8v-2l-4-2-11-12-8-13-6-13 2-1 3 4h3v2l4 2 7 8 10 11v2l4 2 15 10 16 7 11 3 6 1h21l19-4 17-8 14-10 3-3h2l2-4 11-12 6-7-3 2-1-1-7 8-10 10-13 9-12 6-15 5-11 2h-20l-16-2-18-6-12-7-10-8-10-9-4-5 1-4h2l7 8 8 7 13 9 12 6 9 3 15 3 9 1-2-28 1-2h-10l-19-3-19-8-11-8-13-12-13-18-5-12-1-14 2-9 5-9 9-10 9-7 16-8 16-5 15-3 9-1h25l20 3 21 6 19 10 11 10 6 9 4 11v13l-4 15-7 14-5 6-8 7-10 7-14 7-20 6-19 2h-5l1 17v14l16-2 17-5 14-7 11-8 10-9 9-11 6-10 8-20 4-20v-16l-5-22-6-16-9-16-7-9-1-4 5 1 9 11 1 2z" fill="#01BCFE"/>
<path transform="translate(143,334)" d="m0 0h20l14 2 16 6 18 10 12 11 9 11 9 16 7 19 4 19v16l-4 20-6 15-6 12-10 13-9 9-14 10-14 7-17 5-5 1h-11l-1-14v-17l24-3 20-6 16-8 10-8 4-4h2l2-4 5-7 5-11 3-13v-13l-4-11-8-11-8-7-19-10-21-6-20-3h-25l-21 3-17 5-16 8-10 7-7 7-6 10-2 5-1 13 2 10 6 12 9 12 9 10 13 10 14 7 13 4 14 2h8l2 1 1 30h-9l-19-4-12-5-11-7-13-10-9-9-10-14-8-17-4-16-2-10v-17l3-16 7-19 8-15 8-10 12-12 15-10 11-5 16-5z"/>
<path transform="translate(166,383)" d="m0 0h13l19 5 16 7 10 6 10 9 7 11 2 5 1 10-4 15-7 9-10 8-14 8-13 5-18 4-15 2h-19l-25-4-8-3 2-5 26-38 17-25 8-11 1-2-8 4-8 5-7 5-4 2-4-1 30-30z"/>
<path transform="translate(239,344)" d="m0 0 3 1 1 2 1 37 6 15 5 17 1 13v22l-1 2 8-2-1-2-1-23-3-8-2-2v-3l5 1 5 8 1 4v24l-3 5-8 2-6 26-6 16-8 15-9 13h-2l-2 4-10 9-13 9-15 7-16 4-7 1h-17l-17-3-15-6-11-6-11-8v-2l-4-2-11-12-8-13-6-13 2-1 3 4h3v2l4 2 7 8 10 11v2l4 2 15 10 16 7 11 3 6 1h21l19-4 17-8 14-10 3-3h2l2-4 11-12 6-7-3 2-1-1-7 8-10 10-13 9-12 6-15 5-11 2h-20l-16-2-18-6-12-7-10-8-10-9-4-5 1-4h2l7 8 8 7 13 9 12 6 9 3 15 3 9 1-2-28 1-2h-10l-19-3-19-8-7-5 1-4 5 2 16 8 11 3 6 1h30l13-2 15-4 12-5 12-7 11-9 7-11-4 4-10 7-16 8-20 6-19 3h-27l-22-4-13-4v-4l5-3 7-8 5-4-2 5-7 10v2l18 4 14 2h19l26-4 18-6 13-7 9-7 5-5 5-6 4-15-1-10-6-12-9-10-10-6-14-7-8-3v-2l3-1 13 5 15 8 11 10 6 9 4 11v13l-4 15-7 14-5 6-8 7-10 7-14 7-20 6-19 2h-5l1 17v14l16-2 17-5 14-7 11-8 10-9 9-11 6-10 8-20 4-20v-16l-5-22-6-16-9-16-7-9-1-4 5 1 9 11 1 2z" fill="#FAFDFD"/>
<path transform="translate(391,375)" d="m0 0h48v19l-5 1h-20l-24 1-9 6-5 7-2 7v8l3 9 8 8 7 3 28 1v-18h-22l-4-6-5-11v-2l13-1h36l1 1v57h-46l-12-3-10-6-9-9-7-14-2-8v-10l4-13 6-10 9-9 12-6z" fill="#00BCFE"/>
<path transform="translate(740,374)" d="m0 0h10l12 3 12 7 9 10 6 12 1 5-1 1h-19l-9-12-7-4-4-1h-10l-10 4-7 8-3 9v9l5 10 5 5 8 4h14l8-4 7-8 4-4h18l1 2-4 10-5 8-5 5-7 6-9 4-9 2h-13l-12-3-11-7-8-9-6-13-1-3v-20l4-11 7-10 8-7 12-6z" fill="#FEFFFE"/>
<path transform="translate(115,386)" d="m0 0h3l-2 6-11 23 12-4 9 1 8 3 5 5-1 4-8 4-10 2h-8l-9-2-4-1-9 19-2 4 11-7 10-7h3l-2 10-5 20-2 12-8-3-16-10-7-7-7-11-3-11 2-11 5-10 9-10 7-6 15-8z"/>
<path transform="translate(144,328)" d="m0 0h18l17 3 15 6 11 6 11 8 10 9-3 4-8-8-16-10-16-7-11-3-9-1h-20l-16 3-15 6-15 9-12 11-9 10-9 16-6 15-4 15-1 7v17l5 23 7 16 9 14 1 2-1 4 10 11 16 12 14 7 13 4 16 2h20l15-3 20-8 12-8 12-11 10-10 4-2-2 5-3 1-2 4-7 7-6 8-13 10-14 8-12 5-16 3h-21l-14-3-15-6-12-7-11-8-7-8-9-10-5-5v-2l-4 1-5-6-5-16-4-20-6-3-4-6-1-13 1-13 4-7 7-1 5-17 8-16 9-14 11-12 11-9 14-9 11-5 9-3z" fill="#03BCFE"/>
<path transform="translate(499,373)" d="m0 0 4 2 8 14 13 23 16 29 12 21v3h-24l-10-17-13-24-12-21-5-9 1-5 9-15z" fill="#00BCFE"/>
<path transform="translate(650,373)" d="m0 0 4 1 10 17 6 11 13 23 14 26 7 12v2h-24l-6-9-14-26-13-23-7-13 1-5 6-10z" fill="#FDFEFE"/>
<path transform="translate(235,460)" d="m0 0 1 2-7 11-13 11-17 9-16 5-9 2-9 1h-30l-14-3-12-5-12-7-9-7-7-8 1-2 16 9 12 5 16 4 13 2h27l23-4 21-7 16-9 7-6z"/>
<path transform="translate(632,406)" d="m0 0 3 3 8 15 1 7-12 21-7 12-1 1h-24l2-6 9-16 14-25z" fill="#02BCFE"/>
<path transform="translate(480,406)" d="m0 0 4 4 6 12 2 3-1 7-16 29-3 4h-23v-3l13-24 13-23z" fill="#01BCFE"/>
<path transform="translate(838,490)" d="m0 0h16l5 2 3 3v13l-1 7 2 3v12l-4 5-4 1h-15l-3-3v-27z" fill="#FDFEFE"/>
<path transform="translate(717,489)" d="m0 0 7 1 5 3 3 5v30l-3 5-5 3h-11l-5-5-2-5v-26l3-6 5-4z" fill="#FEFFFE"/>
<path transform="translate(65,493)" d="m0 0 5 2 9 10 7 8 15 12 16 8 13 4 16 2h20l15-3 20-8 12-8 12-11 10-10 4-2-2 5-3 1-2 4-7 7-6 8-13 10-14 8-12 5-16 3h-21l-14-3-15-6-12-7-11-8-7-8-9-10-5-5v-2h-3z"/>
<path transform="translate(69,503)" d="m0 0 2 1v2h2l6 8 9 10 12 10 14 8 13 5 13 3h27l19-5 16-8 12-8 10-9 6-8 1 3-7 11-12 11-15 10-11 5-9 3-10 2h-26l-16-4-18-8-13-9-14-14-7-11-4-6z"/>
<path transform="translate(677,490)" d="m0 0h16l5 2 3 6v9l-3 7v8l5 12v2h-5l-3-3-4-13v-3h-9l-1 18-4 1-1-1v-44z" fill="#FEFFFE"/>
<path transform="translate(515,490)" d="m0 0h12l7 2 4 6v8l-2 6-2 3 1 8 5 10v2h-6l-5-11-1-7-10-1 1 19-5 1-1-2v-42z" fill="#00BCFF"/>
<path transform="translate(601,489)" d="m0 0 4 1 3 7 9 34 2 5h-6l-4-9v-2l-13 1-2 9-5 1-1-1 1-8 8-30z" fill="#FEFFFE"/>
<path transform="translate(429,489)" d="m0 0 3 2 1 39-1 5h-5v-28l-7 18-3 5h-2l-6-15-4-9v29h-4l-1-15v-13l1-17 4 1 5 12 6 16 2-2 5-15 4-11z" fill="#01BCFE"/>
<path transform="translate(650,373)" d="m0 0 4 1 10 17 4 9-7 8-8 6h-2l-11-20 1-5 6-10z" fill="#01BCFE"/>
<path transform="translate(465,489)" d="m0 0 4 2 9 32 2 12h-5l-3-9h-13l-3 9h-5l3-14 8-29z" fill="#01BCFE"/>
<path transform="translate(379,490)" d="m0 0h4l4 11 7 27 1 7-5-1-2-9-14 1-3 9-4 1-1-4 5-17 6-21z" fill="#01BCFE"/>
<path transform="translate(74,506)" d="m0 0 4 2 13 14v2l4 2 15 10 16 7 11 3 6 1h21l19-4 17-8 14-10 3-3h2l2-4 12-12v3l-6 8-9 10-14 10-16 8-16 5-5 1h-27l-19-5-16-8-11-8-10-9-9-10-2-4z" fill="#FBFEFE"/>
<path transform="translate(809,490)" d="m0 0h4l1 38 1 2h9l1-2 1-37 5-1 1 1v37l-3 6-5 2h-11l-5-5v-40z" fill="#FEFFFE"/>
<path transform="translate(552,490)" d="m0 0h10l5 4 3 7v25l-4 8-4 2h-11l-5-5-2-9v-22l3-7zm1 4-3 4-1 3v24l2 5 4 2 6-1 3-3 1-8v-19l-3-5-4-2z" fill="#00BCFF"/>
<path transform="translate(306,490)" d="m0 0h9l6 4 2 3v6h-4l-4-6-3-2-6 1-2 4v26l2 4 7 1 4-4v-10l-8-3 1-2h12l1 1v16l-4 5-5 2h-8l-5-3-3-6-1-5v-14l1-9 4-6z" fill="#00BCFE"/>
<path transform="translate(630,489)" d="m0 0 9 2 4 4 1 7-5-1-5-5-5-1-4 1v9l8 5 6 3 5 6v10l-3 5-4 2h-13l-4-4-1-9 4 2 4 5 2 1h6l3-5-1-7-4-3-9-3-4-5-1-2v-9l4-6z" fill="#FDFEFE"/>
<path transform="translate(716,495)" d="m0 0h6l4 3 1 3v19l-2 10-7 2-4-2-2-4v-27z"/>
<path transform="translate(763,489)" d="m0 0 9 2 4 5 1 8-4-1-5-6-7-1-2 3v28l2 3 4 1 5-1 2-5 3-5 2 2-2 9-6 5h-9l-5-3-3-7v-26l2-5 6-5z" fill="#FEFFFE"/>
<path transform="translate(486,490)" d="m0 0h20l2 5-17 1v14l16 2v3l-16 1-1 15h16l2 1v3l-20 1-3-3v-42z" fill="#00BCFE"/>
<path transform="translate(647,490)" d="m0 0h24l1 5-9 1-1 39-5 1-1-1-1-38-9-3v-3z" fill="#FEFFFE"/>
<path transform="translate(643,427)" d="m0 0 1 4-12 21-7 12-1 1h-14l2-5 7-7 9-11 9-10z" fill="#FEFFFE"/>
<path transform="translate(783,490)" d="m0 0h5v31l-1 10h17l1 4-2 1h-19l-2-1v-44z" fill="#FEFFFE"/>
<path transform="translate(363,490)" d="m0 0 5 2-2 3h-9v33l-1 7-4-1v-34l-1-4-10-1-1-4z" fill="#00BCFF"/>
<path transform="translate(519,495)" d="m0 0h10l3 2 1 3v8l-2 4h-12l-1-1v-9z"/>
<path transform="translate(682,495)" d="m0 0h9l4 3 1 3v7l-4 4h-9l-2-2v-14z"/>
<path transform="translate(331,490)" d="m0 0h4v45l-3 1-2-1v-44z" fill="#00BCFF"/>
<path transform="translate(844,515)" d="m0 0h11l2 3v10l-2 3-9 1-3-2v-14z"/>
<path transform="translate(239,324)" d="m0 0 7 1 3 4 1 5-6 6-1 7-1-2-3-1-3-9h-2l-1-5 4-5z" fill="#15C1FE"/>
<path transform="translate(50,418)" d="m0 0h3v35l-5-1-3-5v-10l1-14 2-4z"/>
<path transform="translate(565,511)" d="m0 0 5 2v13l-4 8-4 2h-11l-4-3v-2h12l4-3z" fill="#ECFAFE"/>
<path transform="translate(844,495)" d="m0 0h10l2 2v12h-13v-12z"/>
<path transform="translate(381,498)" d="m0 0 2 2 4 20-1 1h-10l-1-5 5-17z"/>
<path transform="translate(465,498)" d="m0 0h2l5 20-1 3-11-1 1-7z"/>
<path transform="translate(602,498)" d="m0 0 2 3 4 15v4h-11l2-11 2-10z"/>
<path transform="translate(240,326)" d="m0 0 4 1 2 2-1 7-3 1-5-2-1-4z"/>
<path transform="translate(161,514)" d="m0 0 2 1v16h-2l-1-2v-14z" fill="#D5F4FE"/>
</svg>
